<svg width="347" height="45" viewBox="0 0 347 45" fill="none" xmlns="http://www.w3.org/2000/svg">
<path d="M75.0051 33.2132C73.2771 33.2132 71.6931 33.1772 70.2531 33.1052C68.8371 33.0092 67.6971 32.8532 66.8331 32.6372C65.9931 32.4212 65.5731 32.1212 65.5731 31.7372L67.3731 28.9652C68.0691 29.2772 69.0291 29.4932 70.2531 29.6132C71.5011 29.7092 73.1451 29.7572 75.1851 29.7572H78.6411C79.7691 29.7572 80.5131 29.4932 80.8731 28.9652C81.2331 28.4132 81.4131 27.8252 81.4131 27.2012V14.9252L81.1251 12.0452H86.1651V26.7692C86.1651 27.9692 86.0091 29.0612 85.6971 30.0452C85.4091 31.0292 84.7971 31.8092 83.8611 32.3852C82.9491 32.9372 81.5451 33.2132 79.6491 33.2132H75.0051ZM96.9331 33.2132L86.8891 12.0812H91.9291L98.6971 26.6612L99.6691 29.2532H99.9931L100.929 26.6612L107.769 12.0812H112.665L112.089 14.2412L102.693 33.2132H96.9331ZM113.757 33.2132V14.9252L113.397 12.0452H118.869L127.005 26.4452L135.429 12.0452H140.289V33.2132H135.537V19.7852H135.141L133.737 22.9172L129.201 31.0532H124.845L120.309 22.9172L118.869 19.7852H118.509V33.2132H113.757Z" fill="white"/>
<path d="M148.927 33.2132L149.287 30.3332V12.0452H154.039V29.7572H168.943L170.383 32.8172C170.383 32.9132 170.059 33.0092 169.411 33.1052C168.763 33.1772 167.647 33.2132 166.063 33.2132H148.927ZM175.011 33.2132C173.187 33.2132 171.867 32.7932 171.051 31.9532C170.235 31.0892 169.827 29.9132 169.827 28.4252C169.827 26.8652 170.247 25.6652 171.087 24.8252C171.951 23.9852 173.259 23.5652 175.011 23.5652H176.847C178.647 23.5652 180.267 23.6132 181.707 23.7092C183.147 23.8052 184.335 23.9012 185.271 23.9972V21.6212C185.271 21.4052 185.247 21.1892 185.199 20.9732C185.151 20.7332 185.007 20.5412 184.767 20.3972C184.527 20.2532 184.119 20.1812 183.543 20.1812H181.743C179.127 20.1812 176.943 20.2292 175.191 20.3252C173.439 20.3972 172.251 20.4692 171.627 20.5412L171.231 17.8052C171.231 17.4692 172.143 17.2652 173.967 17.1932C175.791 17.1212 178.839 17.0852 183.111 17.0852H184.911C186.111 17.0852 187.035 17.2532 187.683 17.5892C188.331 17.9252 188.787 18.3452 189.051 18.8492C189.339 19.3532 189.507 19.8692 189.555 20.3972C189.627 20.9012 189.663 21.3332 189.663 21.6932V33.2132H186.711L185.307 32.4932C184.299 32.6612 183.087 32.8292 181.671 32.9972C180.255 33.1412 178.635 33.2132 176.811 33.2132H175.011ZM175.947 30.1172H184.191C184.719 30.1172 185.031 30.0692 185.127 29.9732C185.223 29.8772 185.271 29.5772 185.271 29.0732V26.3012H175.947C175.299 26.3012 174.843 26.4572 174.579 26.7692C174.339 27.0812 174.219 27.5732 174.219 28.2452C174.219 28.9172 174.363 29.3972 174.651 29.6852C174.939 29.9732 175.371 30.1172 175.947 30.1172ZM196.048 33.2132C194.872 33.2132 193.948 33.0572 193.276 32.7452C192.628 32.4332 192.16 32.0372 191.872 31.5572C191.608 31.0772 191.44 30.5732 191.368 30.0452C191.32 29.5172 191.296 29.0372 191.296 28.6052V17.0852H195.688V28.6772C195.664 29.2052 195.832 29.5772 196.192 29.7932C196.576 30.0092 196.984 30.1172 197.416 30.1172H204.544C205.072 30.1172 205.384 30.0692 205.48 29.9732C205.576 29.8772 205.624 29.5652 205.624 29.0372V17.0852H210.016V33.2132H207.064L205.696 32.4932C204.736 32.6852 203.596 32.8532 202.276 32.9972C200.98 33.1412 199.516 33.2132 197.884 33.2132H196.048ZM211.803 33.2132V17.0852H214.755L216.195 17.8052C217.203 17.6132 218.415 17.4452 219.831 17.3012C221.247 17.1572 222.867 17.0852 224.691 17.0852H226.491C227.691 17.0852 228.615 17.2532 229.263 17.5892C229.911 17.9252 230.367 18.3452 230.631 18.8492C230.919 19.3532 231.087 19.8692 231.135 20.3972C231.207 20.9012 231.243 21.3332 231.243 21.6932V33.2132H226.851V21.6212C226.851 20.6612 226.275 20.1812 225.123 20.1812H217.275C216.819 20.1812 216.519 20.2292 216.375 20.3252C216.255 20.3972 216.195 20.6132 216.195 20.9732V33.2132H211.803ZM237.265 33.2132C236.065 33.2132 235.141 33.0572 234.493 32.7452C233.845 32.4332 233.377 32.0372 233.089 31.5572C232.825 31.0772 232.657 30.5732 232.585 30.0452C232.537 29.5172 232.513 29.0372 232.513 28.6052V21.6932C232.513 21.3332 232.537 20.9012 232.585 20.3972C232.657 19.8692 232.825 19.3532 233.089 18.8492C233.377 18.3452 233.845 17.9252 234.493 17.5892C235.165 17.2532 236.089 17.0852 237.265 17.0852H242.269C245.269 17.0852 247.393 17.1692 248.641 17.3372C249.913 17.4812 250.549 17.6372 250.549 17.8052L249.829 20.5412C249.157 20.4932 248.305 20.4452 247.273 20.3972C246.241 20.3252 245.125 20.2772 243.925 20.2532C242.749 20.2052 241.597 20.1812 240.469 20.1812H238.633C237.481 20.1812 236.905 20.6612 236.905 21.6212V28.6772C236.881 29.6372 237.457 30.1172 238.633 30.1172H240.469C241.765 30.1172 243.025 30.1052 244.249 30.0812C245.497 30.0332 246.637 29.9852 247.669 29.9372C248.701 29.8652 249.529 29.8052 250.153 29.7572L251.593 32.0972C251.593 32.8412 249.229 33.2132 244.501 33.2132H237.265ZM251.588 33.2132V9.8852H255.98V17.8052C256.988 17.6132 258.2 17.4452 259.616 17.3012C261.032 17.1572 262.652 17.0852 264.476 17.0852H266.276C267.476 17.0852 268.4 17.2532 269.048 17.5892C269.696 17.9252 270.152 18.3452 270.416 18.8492C270.704 19.3532 270.872 19.8692 270.92 20.3972C270.992 20.9012 271.028 21.3332 271.028 21.6932V33.2132H266.636V21.6212C266.636 20.6612 266.06 20.1812 264.908 20.1812H257.06C256.604 20.1812 256.304 20.2292 256.16 20.3252C256.04 20.3972 255.98 20.6132 255.98 20.9732V33.2132H251.588ZM272.658 39.9092V17.0852H275.61L276.51 17.5532C277.59 17.4332 278.874 17.3252 280.362 17.2292C281.874 17.1332 283.59 17.0852 285.51 17.0852H287.346C288.546 17.0852 289.47 17.2412 290.118 17.5532C290.766 17.8652 291.222 18.2612 291.486 18.7412C291.774 19.2212 291.942 19.7252 291.99 20.2532C292.062 20.7812 292.098 21.2612 292.098 21.6932V28.6052C292.098 28.9652 292.062 29.4092 291.99 29.9372C291.942 30.4412 291.774 30.9452 291.486 31.4492C291.222 31.9532 290.766 32.3732 290.118 32.7092C289.47 33.0452 288.546 33.2132 287.346 33.2132H285.51C283.686 33.2132 282.066 33.1652 280.65 33.0692C279.234 32.9732 278.034 32.8772 277.05 32.7812V39.9092H272.658ZM278.166 30.1172H285.978C286.434 30.1172 286.83 29.9972 287.166 29.7572C287.526 29.5172 287.706 29.1572 287.706 28.6772V21.6212C287.73 21.0932 287.598 20.7212 287.31 20.5052C287.046 20.2892 286.602 20.1812 285.978 20.1812H284.178C282.642 20.1812 281.274 20.2172 280.074 20.2892C278.898 20.3372 277.89 20.3972 277.05 20.4692V29.0012C277.05 29.5292 277.098 29.8532 277.194 29.9732C277.314 30.0692 277.638 30.1172 278.166 30.1172ZM298.196 33.2132C296.372 33.2132 295.052 32.7932 294.236 31.9532C293.42 31.0892 293.012 29.9132 293.012 28.4252C293.012 26.8652 293.432 25.6652 294.272 24.8252C295.136 23.9852 296.444 23.5652 298.196 23.5652H300.032C301.832 23.5652 303.452 23.6132 304.892 23.7092C306.332 23.8052 307.52 23.9012 308.456 23.9972V21.6212C308.456 21.4052 308.432 21.1892 308.384 20.9732C308.336 20.7332 308.192 20.5412 307.952 20.3972C307.712 20.2532 307.304 20.1812 306.728 20.1812H304.928C302.312 20.1812 300.128 20.2292 298.376 20.3252C296.624 20.3972 295.436 20.4692 294.812 20.5412L294.416 17.8052C294.416 17.4692 295.328 17.2652 297.152 17.1932C298.976 17.1212 302.024 17.0852 306.296 17.0852H308.096C309.296 17.0852 310.22 17.2532 310.868 17.5892C311.516 17.9252 311.972 18.3452 312.236 18.8492C312.524 19.3532 312.692 19.8692 312.74 20.3972C312.812 20.9012 312.848 21.3332 312.848 21.6932V33.2132H309.896L308.492 32.4932C307.484 32.6612 306.272 32.8292 304.856 32.9972C303.44 33.1412 301.82 33.2132 299.996 33.2132H298.196ZM299.132 30.1172H307.376C307.904 30.1172 308.216 30.0692 308.312 29.9732C308.408 29.8772 308.456 29.5772 308.456 29.0732V26.3012H299.132C298.484 26.3012 298.028 26.4572 297.764 26.7692C297.524 27.0812 297.404 27.5732 297.404 28.2452C297.404 28.9172 297.548 29.3972 297.836 29.6852C298.124 29.9732 298.556 30.1172 299.132 30.1172ZM318.873 33.2132C317.673 33.2132 316.749 33.0572 316.101 32.7452C315.453 32.4332 314.985 32.0372 314.697 31.5572C314.433 31.0772 314.265 30.5732 314.193 30.0452C314.145 29.5172 314.121 29.0372 314.121 28.6052V21.6932C314.121 21.3332 314.145 20.9012 314.193 20.3972C314.265 19.8692 314.433 19.3532 314.697 18.8492C314.985 18.3452 315.453 17.9252 316.101 17.5892C316.773 17.2532 317.697 17.0852 318.873 17.0852H320.709C322.917 17.0852 324.693 17.1332 326.037 17.2292C327.405 17.3012 328.449 17.3852 329.169 17.4812V10.3892H333.561V33.2132H330.609L329.205 32.4932C328.197 32.6612 326.985 32.8292 325.569 32.9972C324.153 33.1412 322.521 33.2132 320.673 33.2132H318.873ZM320.241 30.1172H328.053C328.557 30.1172 328.869 30.0572 328.989 29.9372C329.109 29.8172 329.169 29.5172 329.169 29.0372V20.4332C328.353 20.3852 327.321 20.3372 326.073 20.2892C324.825 20.2172 323.493 20.1812 322.077 20.1812H320.241C319.089 20.1812 318.513 20.6612 318.513 21.6212V28.6772C318.513 29.6372 319.089 30.1172 320.241 30.1172Z" fill="#E63946"/>
<rect y="21.2132" width="30" height="30" transform="rotate(-45 0 21.2132)" fill="#E63946"/>
</svg>
