<svg width="257" height="129" viewBox="0 0 257 129" fill="none" xmlns="http://www.w3.org/2000/svg">
<g clip-path="url(#clip0_2_25)">
<path d="M116.91 125.69L172.97 0.180054H185C186.45 0.180054 187.42 1.67005 186.83 3.00005L130.77 128.51H118.74C117.29 128.51 116.32 127.02 116.91 125.69ZM187.94 99.7001V84.0201L237.84 65.0601V63.7801L168.4 36.4001V21.0701L253.75 56.1901C255.25 56.8101 256.23 58.2701 256.23 59.8901V68.9301C256.23 70.5501 255.25 72.0101 253.75 72.6301L187.93 99.7001H187.94ZM72.64 114.96V17.7301C72.64 15.5201 74.43 13.7301 76.64 13.7301H87.47V112.96C87.47 114.06 86.57 114.96 85.47 114.96H72.64ZM72.64 27.2701V17.7301C72.64 15.5201 74.43 13.7301 76.64 13.7301H139.65V25.2701C139.65 26.3701 138.75 27.2701 137.65 27.2701H72.64ZM72.64 75.3201V61.7801H126.82V73.3201C126.82 74.4201 125.92 75.3201 124.82 75.3201H72.64ZM68.64 99.7001L2.82998 72.6301C1.32998 72.0101 0.349976 70.5501 0.349976 68.9301V59.8901C0.349976 58.2701 1.32998 56.8101 2.82998 56.1901L68.65 29.1201V44.8001L15.89 63.7701V65.0501L68.64 84.0101V99.6901V99.7001Z" fill="#E63946"/>
</g>
<defs>
<clipPath id="clip0_2_25">
<rect width="256.59" height="128.68" fill="white"/>
</clipPath>
</defs>
</svg>
